<?xml version="1.0" standalone="no"?><!DOCTYPE svg PUBLIC "-//W3C//DTD SVG 1.1//EN" "http://www.w3.org/Graphics/SVG/1.1/DTD/svg11.dtd"><svg t="1703143668493" class="icon" viewBox="0 0 1024 1024" version="1.1" xmlns="http://www.w3.org/2000/svg" p-id="1262" xmlns:xlink="http://www.w3.org/1999/xlink" width="200" height="200"><path d="M112 112m32 0l288 0q32 0 32 32l0 288q0 32-32 32l-288 0q-32 0-32-32l0-288q0-32 32-32Z" fill="#0088FF" p-id="1263"></path><path d="M560 560m32 0l288 0q32 0 32 32l0 288q0 32-32 32l-288 0q-32 0-32-32l0-288q0-32 32-32Z" fill="#0088FF" p-id="1264"></path><path d="M828 464h-56c-4.4 0-8-3.6-8-8V288c0-15.48-12.52-28-28-28h-168c-4.4 0-8-3.6-8-8V196c0-4.4 3.6-8 8-8h168c55.24 0 100 44.76 100 100v168c0 4.4-3.6 8-8 8zM196 560h56c4.4 0 8 3.6 8 8v168c0 15.48 12.52 28 28 28h168c4.4 0 8 3.6 8 8v56c0 4.4-3.6 8-8 8H288c-55.24 0-100-44.76-100-100v-168c0-4.4 3.6-8 8-8z" fill="#7ACEFF" p-id="1265"></path></svg>