<?xml version="1.0" standalone="no"?><!DOCTYPE svg PUBLIC "-//W3C//DTD SVG 1.1//EN" "http://www.w3.org/Graphics/SVG/1.1/DTD/svg11.dtd"><svg t="1703144597165" class="icon" viewBox="0 0 1024 1024" version="1.1" xmlns="http://www.w3.org/2000/svg" p-id="1699" xmlns:xlink="http://www.w3.org/1999/xlink" width="200" height="200"><path d="M768 512h-224v-64h-64v64H256c-17.68 0-32 14.32-32 32v104h64v-72h448v72h64v-104c0-17.68-14.32-32-32-32z" fill="#90E8BF" p-id="1700"></path><path d="M512 288m-176 0a176 176 0 1 0 352 0 176 176 0 1 0-352 0Z" fill="#1BC185" p-id="1701"></path><path d="M256 768m-144 0a144 144 0 1 0 288 0 144 144 0 1 0-288 0Z" fill="#1BC185" p-id="1702"></path><path d="M768 768m-144 0a144 144 0 1 0 288 0 144 144 0 1 0-288 0Z" fill="#1BC185" p-id="1703"></path></svg>