<?xml version="1.0" standalone="no"?><!DOCTYPE svg PUBLIC "-//W3C//DTD SVG 1.1//EN" "http://www.w3.org/Graphics/SVG/1.1/DTD/svg11.dtd"><svg t="1703147870334" class="icon" viewBox="0 0 1024 1024" version="1.1" xmlns="http://www.w3.org/2000/svg" p-id="1847" xmlns:xlink="http://www.w3.org/1999/xlink" width="200" height="200"><path d="M512 870c-197.4 0-358-160.6-358-358S314.6 154 512 154s358 160.6 358 358-160.6 358-358 358z m0-640c-155.48 0-282 126.52-282 282s126.52 282 282 282 282-126.52 282-282-126.52-282-282-282z" fill="#90E8BF" p-id="1848"></path><path d="M192 512m-128 0a128 128 0 1 0 256 0 128 128 0 1 0-256 0Z" fill="#1BC185" p-id="1849"></path><path d="M832 512m-128 0a128 128 0 1 0 256 0 128 128 0 1 0-256 0Z" fill="#1BC185" p-id="1850"></path><path d="M512 192m-128 0a128 128 0 1 0 256 0 128 128 0 1 0-256 0Z" fill="#1BC185" p-id="1851"></path><path d="M512 832m-128 0a128 128 0 1 0 256 0 128 128 0 1 0-256 0Z" fill="#1BC185" p-id="1852"></path></svg>