<?xml version="1.0" standalone="no"?><!DOCTYPE svg PUBLIC "-//W3C//DTD SVG 1.1//EN" "http://www.w3.org/Graphics/SVG/1.1/DTD/svg11.dtd"><svg t="1703143297112" class="icon" viewBox="0 0 1024 1024" version="1.1" xmlns="http://www.w3.org/2000/svg" p-id="1352" xmlns:xlink="http://www.w3.org/1999/xlink" width="200" height="200"><path d="M640 872H199.45a48 48 0 0 1-48-48V200.84A49.83 49.83 0 0 1 201.29 151h388.85A49.83 49.83 0 0 1 640 200.84z" fill="#FF9906" p-id="1353"></path><path d="M823.69 870.8H640.12V333.57H822.7a49.29 49.29 0 0 1 49.3 49.3V822.5a48.29 48.29 0 0 1-48.31 48.3z" fill="#FFCB99" p-id="1354"></path><path d="M226.81 238.68m28.93 0l279.94 0q28.93 0 28.93 28.93l0 38.07q0 28.93-28.93 28.93l-279.94 0q-28.93 0-28.93-28.93l0-38.07q0-28.93 28.93-28.93Z" fill="#FFDEC5" p-id="1355"></path><path d="M226.81 385.14m28.93 0l279.94 0q28.93 0 28.93 28.93l0 38.07q0 28.93-28.93 28.93l-279.94 0q-28.93 0-28.93-28.93l0-38.07q0-28.93 28.93-28.93Z" fill="#FFDEC5" p-id="1356"></path><path d="M226.81 529.55m28.93 0l279.94 0q28.93 0 28.93 28.93l0 38.07q0 28.93-28.93 28.93l-279.94 0q-28.93 0-28.93-28.93l0-38.07q0-28.93 28.93-28.93Z" fill="#FFDEC5" p-id="1357"></path><path d="M785.35 385.14m13.68 0l32.47 0q13.68 0 13.68 13.68l0 68.57q0 13.68-13.68 13.68l-32.47 0q-13.68 0-13.68-13.68l0-68.57q0-13.68 13.68-13.68Z" fill="#FFDEC5" p-id="1358"></path><path d="M785.35 529.55m13.68 0l32.47 0q13.68 0 13.68 13.68l0 68.57q0 13.68-13.68 13.68l-32.47 0q-13.68 0-13.68-13.68l0-68.57q0-13.68 13.68-13.68Z" fill="#FFDEC5" p-id="1359"></path></svg>