<?xml version="1.0" standalone="no"?><!DOCTYPE svg PUBLIC "-//W3C//DTD SVG 1.1//EN" "http://www.w3.org/Graphics/SVG/1.1/DTD/svg11.dtd"><svg t="1703143006426" class="icon" viewBox="0 0 1024 1024" version="1.1" xmlns="http://www.w3.org/2000/svg" p-id="1209" xmlns:xlink="http://www.w3.org/1999/xlink" width="200" height="200"><path d="M794.87 279.9L568.31 149.1a118.27 118.27 0 0 0-118.25 0L223.5 279.9a118.26 118.26 0 0 0-59.12 102.41v261.61a118.23 118.23 0 0 0 59.12 102.41l226.56 130.81a118.15 118.15 0 0 0 94.05 10.55c0.75-0.2 1.5-0.44 2.24-0.71a118.27 118.27 0 0 0 22-9.84l226.52-130.81A118.24 118.24 0 0 0 854 643.92V382.31a118.27 118.27 0 0 0-59.13-102.41zM246.24 707a73 73 0 0 1-36.39-63V382.31a73 73 0 0 1 36.39-63L472.8 188.48a72.78 72.78 0 0 1 72.78 0l226.56 130.81 0.31 0.18c15.13 8.84 14.86 30.84-0.31 39.6L540.82 501.12C518 518 506 533 506 563l-0.35 255.85c0 16.71-18 27.41-32.55 19.13l-0.3-0.18z" fill="#FF0000" p-id="1210"></path><path d="M432.4 762.44l-140.94-81.37a73.22 73.22 0 0 1-36.61-63.42V444.81A18.11 18.11 0 0 1 282 429.12l168.5 97.33a18.1 18.1 0 0 1 9.05 15.68v204.62a18.11 18.11 0 0 1-27.15 15.69z" fill="#E50B00" p-id="1211"></path><path d="M317.66 359.35l163.55 94.48a54.1 54.1 0 0 0 54.1 0l163.59-94.38a21.7 21.7 0 0 0 0-37.58L530 224.34a43.46 43.46 0 0 0-43.44 0l-168.89 97.44a21.69 21.69 0 0 0-0.01 37.57z" fill="#FF5D01" p-id="1212"></path></svg>